<?xml version="1.0" encoding="UTF-8"?>
<svg xmlns="http://www.w3.org/2000/svg" xmlns:xlink="http://www.w3.org/1999/xlink" width="210.66pt" height="295.68pt" viewBox="0 0 210.66 295.68" version="1.1">
<defs>
<clipPath id="clip1">
  <path d="M 0 0 L 210.660156 0 L 210.660156 134 L 0 134 Z M 0 0 "/>
</clipPath>
<clipPath id="clip2">
  <path d="M 0 0 L 210.660156 0 L 210.660156 165 L 0 165 Z M 0 0 "/>
</clipPath>
<clipPath id="clip3">
  <path d="M 12 123 L 199 123 L 199 295.679688 L 12 295.679688 Z M 12 123 "/>
</clipPath>
<clipPath id="clip4">
  <path d="M 0 91 L 210.660156 91 L 210.660156 295.679688 L 0 295.679688 Z M 0 91 "/>
</clipPath>
</defs>
<g id="surface1">
<g clip-path="url(#clip1)" clip-rule="nonzero">
<path style=" stroke:none;fill-rule:evenodd;fill:rgb(74.899292%,13.699341%,15.299988%);fill-opacity:1;" d="M 3.386719 133.769531 C -30.4375 -47.46875 242.871094 -39.839844 206.90625 132.089844 C 157.304688 94.242188 51.109375 94.683594 3.386719 133.769531 "/>
</g>
<g clip-path="url(#clip2)" clip-rule="nonzero">
<path style="fill:none;stroke-width:9.6009;stroke-linecap:butt;stroke-linejoin:miter;stroke:rgb(13.699341%,12.199402%,12.5%);stroke-opacity:1;stroke-miterlimit:22.9256;" d="M 33.867188 1619.104688 C -304.375 3431.4875 2428.710938 3355.198438 2069.0625 1635.901563 C 1573.046875 2014.378125 511.09375 2009.964063 33.867188 1619.104688 Z M 33.867188 1619.104688 " transform="matrix(0.1,0,0,-0.1,0,295.68)"/>
</g>
<g clip-path="url(#clip3)" clip-rule="nonzero">
<path style=" stroke:none;fill-rule:evenodd;fill:rgb(89.7995%,87.799072%,88.598633%);fill-opacity:1;" d="M 12.265625 154.886719 C 66.269531 114.574219 145.566406 110.832031 198.746094 153.929688 C 183.128906 184.847656 151.289063 204.894531 117.386719 209.128906 C 117.386719 234.566406 117.386719 260.007813 117.386719 285.449219 C 114.402344 297.664063 96.742188 299.214844 92.425781 285.449219 C 92.425781 260.007813 92.425781 234.566406 92.425781 209.128906 C 58.269531 206.261719 28.511719 184.589844 12.265625 154.886719 "/>
</g>
<g clip-path="url(#clip4)" clip-rule="nonzero">
<path style="fill:none;stroke-width:9.6009;stroke-linecap:butt;stroke-linejoin:miter;stroke:rgb(13.699341%,12.199402%,12.5%);stroke-opacity:1;stroke-miterlimit:22.9256;" d="M 122.65625 1407.932813 C 662.695313 1811.057813 1455.664063 1848.479688 1987.460938 1417.503125 C 1831.289063 1108.323438 1512.890625 907.854688 1173.867188 865.510938 C 1173.867188 611.135938 1173.867188 356.721875 1173.867188 102.307813 C 1144.023438 -19.840625 967.421875 -35.348437 924.257813 102.307813 C 924.257813 356.721875 924.257813 611.135938 924.257813 865.510938 C 582.695313 894.182813 285.117188 1110.901563 122.65625 1407.932813 Z M 122.65625 1407.932813 " transform="matrix(0.1,0,0,-0.1,0,295.68)"/>
</g>
</g>
</svg>
